<?xml version="1.0" encoding="utf-8"?>
<!-- Generator: Adobe Illustrator 20.1.0, SVG Export Plug-In . SVG Version: 6.00 Build 0)  -->
<svg version="1.1" id="Capa_1" xmlns="http://www.w3.org/2000/svg" xmlns:xlink="http://www.w3.org/1999/xlink" x="0px" y="0px"
	 viewBox="0 0 514 746.8" width="100%" height = "100%" xml:space="preserve">
<style type="text/css">
	.st0{fill:#424242;}
</style>
<g>
	<g transform="translate(0 20)">
		<path class="st0" d="M438,75c-23.5-23.5-50.9-41.9-81.4-54.9C325,6.8,291.5,0,256.9,0c-34.5,0.1-68,6.8-99.6,20.2
			C126.9,33.1,99.5,51.5,76,75s-41.9,50.9-54.9,81.4C7.8,187.9,1,221.4,1,256c0,34.5,6.8,68.1,20.1,99.6C34,386.1,52.5,413.5,76,437
			s50.9,41.9,81.4,54.9C189,505.2,222.5,512,257,512s68.1-6.8,99.6-20.1c30.5-12.9,57.9-31.4,81.4-54.9s41.9-50.9,54.9-81.4
			C506.2,324,513,290.5,513,256s-6.8-68.1-20.1-99.6C479.9,125.8,461.5,98.5,438,75z M115.3,57.8c2.3-1.8,4.6-3.7,6.9-5.3
			c12.4-8.7,26.2-15.8,40.2-21.6c29.8-12.5,62.2-19,94.5-19c21.6,0,43.7,2.9,64.5,8.6c-8.2,3.3-18.3,9.7-35.2,24.1
			c-14-1.5-28.2-1.6-42.5-0.2c-18.6,1.8-37.3,5.9-55.6,12.4c-16.5,5.8-29.6,12.4-38.4,17.5c-13.5-4.8-30.9-10.5-39.5-13.3
			C111.6,61.3,114.4,58.5,115.3,57.8z M348.5,121.8l-43.8,119.5l-105,20.2l-86.8-89.6c5.9-40.7,33.7-76.7,33.7-76.7
			c0.2-0.1,18.3-13.2,47.5-23.4c17-6,34.3-9.8,51.6-11.4c14.1-1.3,28.1-1.1,42,0.6L348.5,121.8z M22.2,247.5
			c-2.7,17.4-3.3,35.4-1.9,53.5c-2.1-4.2-3.8-7.7-5-10.6c-1.6-11.2-2.4-22.7-2.4-34.5c0-36,7.8-70.3,21.8-101.1
			c-1.6,16.1-0.8,32.9,0.3,45.5C29,215.5,24.7,231.2,22.2,247.5z M43.4,340.6c-2.5-9.1-5.4-22.3-6.8-38.2
			c-1.6-17.9-1.1-35.7,1.6-52.8c2-13.1,5.3-25.8,9.8-38c17.7-14.9,41.1-23.7,54.1-27.7l85.2,88l-8.9,96.4l-83.2,27.8
			C73.9,380.5,56.6,359.9,43.4,340.6z M296.4,480.2c-18.6,12.2-65.4,15.1-84.5,15.8c-21-3.9-41.4-10.6-60.6-19.9
			c-16.8-8.1-32.7-18.1-47.2-29.8c0.3-0.5-2.3-26.1-2.2-35.5l84.1-28.1l97.1,42l13.4,55.3C296.4,480.1,296.4,480.2,296.4,480.2z
			 M457.6,395c-14.5,20.9-31.8,40.3-52.6,55c-19.5,13.8-45.7,18.5-68.9,22.3c-1.8,0.3-24,3.9-24.1,3.2l-13.4-55.4L367,349l90.5-8.3
			c1.4,14.4,3.2,35.4,4.3,48.3C460.4,391,459,393,457.6,395z M459,322.7c-0.3,0.5-0.6,1.1-1,1.8l-90.1,8.3l-48.5-84.9l43.9-119.8
			l61.9,3.9c13.2,11,24.8,23.3,34.7,36.5c12.4,16.6,22,34.8,28.6,54.2C481.7,282.5,465.8,312.3,459,322.7z M491.4,188.1
			c-5.3-10.3-11.6-20.2-18.6-29.6c-11.1-14.9-24.4-28.6-39.4-40.8c-2.7-13.6-10.3-35-30.5-57.5c0.4,0.3,0.8,0.6,1.1,0.9
			c1.2,0.9,2.4,1.9,3.7,2.8c13.9,11,26.6,23.4,37.9,37.1c20.9,25.4,36.6,55,45.9,86.6C491.4,187.8,491.4,187.9,491.4,188.1z">
			<animateTransform attributeName="transform" type="rotate" from="0 295 276" to="360 295 276" begin="0.1s" dur="3s" repeatCount="indefinite" ></animateTransform>
		</path>
		
		<animateTransform attributeName="transform" type="translate" values="0 20; 0 220; 0 20" begin="0s" dur="1.5s" repeatCount="indefinite" ></animateTransform>
		
	</g>
</g>
<path class="st0" d="M504,746.8H10c-5.5,0-10-4.5-10-10l0,0c0-5.5,4.5-10,10-10h494c5.5,0,10,4.5,10,10l0,0
	C514,742.3,509.5,746.8,504,746.8z"/>
</svg>
