<?xml version="1.0" encoding="utf-8"?>
<!-- Generator: Adobe Illustrator 19.2.1, SVG Export Plug-In . SVG Version: 6.00 Build 0)  -->
<svg version="1.1" id="Capa_1" xmlns="http://www.w3.org/2000/svg" xmlns:xlink="http://www.w3.org/1999/xlink" x="0px" y="0px"
	 viewBox="0 0 591 746.8" style="enable-background:new 0 0 591 746.8;" xml:space="preserve">
<style type="text/css">
	.st0{fill:#424242;}
</style>
<g>
	<g transform="translate(0 20)">
		<path class="st0" d="M477,75c-23.5-23.5-50.9-41.9-81.4-54.9C364,6.8,330.5,0,295.9,0c-34.5,0.1-68,6.8-99.6,20.2
			C165.9,33.1,138.5,51.5,115,75s-41.9,50.9-54.9,81.4C46.8,187.9,40,221.4,40,256c0,34.5,6.8,68.1,20.1,99.6
			C73,386.1,91.5,413.5,115,437s50.9,41.9,81.4,54.9C228,505.2,261.5,512,296,512s68.1-6.8,99.6-20.1c30.5-12.9,57.9-31.4,81.4-54.9
			s41.9-50.9,54.9-81.4C545.2,324,552,290.5,552,256s-6.8-68.1-20.1-99.6C518.9,125.8,500.5,98.5,477,75z M154.3,57.8
			c2.3-1.8,4.6-3.7,6.9-5.3c12.4-8.7,26.2-15.8,40.2-21.6c29.8-12.5,62.2-19,94.5-19c21.6,0,43.7,2.9,64.5,8.6
			c-8.2,3.3-18.3,9.7-35.2,24.1c-14-1.5-28.2-1.6-42.5-0.2c-18.6,1.8-37.3,5.9-55.6,12.4c-16.5,5.8-29.6,12.4-38.4,17.5
			c-13.5-4.8-30.9-10.5-39.5-13.3C150.6,61.3,153.4,58.5,154.3,57.8z M387.5,121.8l-43.8,119.5l-105,20.2l-86.8-89.6
			c5.9-40.7,33.7-76.7,33.7-76.7c0.2-0.1,18.3-13.2,47.5-23.4c17-6,34.3-9.8,51.6-11.4c14.1-1.3,28.1-1.1,42,0.6L387.5,121.8z
			 M61.2,247.5c-2.7,17.4-3.3,35.4-1.9,53.5c-2.1-4.2-3.8-7.7-5-10.6c-1.6-11.2-2.4-22.7-2.4-34.5c0-36,7.8-70.3,21.8-101.1
			c-1.6,16.1-0.8,32.9,0.3,45.5C68,215.5,63.7,231.2,61.2,247.5z M82.4,340.6c-2.5-9.1-5.4-22.3-6.8-38.2
			c-1.6-17.9-1.1-35.7,1.6-52.8c2-13.1,5.3-25.8,9.8-38c17.7-14.9,41.1-23.7,54.1-27.7l85.2,88l-8.9,96.4l-83.2,27.8
			C112.9,380.5,95.6,359.9,82.4,340.6z M335.4,480.2c-18.6,12.2-65.4,15.1-84.5,15.8c-21-3.9-41.4-10.6-60.6-19.9
			c-16.8-8.1-32.7-18.1-47.2-29.8c0.3-0.5-2.3-26.1-2.2-35.5l84.1-28.1l97.1,42l13.4,55.3C335.4,480.1,335.4,480.2,335.4,480.2z
			 M496.6,395c-14.5,20.9-31.8,40.3-52.6,55c-19.5,13.8-45.7,18.5-68.9,22.3c-1.8,0.3-24,3.9-24.1,3.2l-13.4-55.4L406,349l90.5-8.3
			c1.4,14.4,3.2,35.4,4.3,48.3C499.4,391,498,393,496.6,395z M498,322.7c-0.3,0.5-0.6,1.1-1,1.8l-90.1,8.3l-48.5-84.9l43.9-119.8
			l61.9,3.9c13.2,11,24.8,23.3,34.7,36.5c12.4,16.6,22,34.8,28.6,54.2C520.7,282.5,504.8,312.3,498,322.7z M530.4,188.1
			c-5.3-10.3-11.6-20.2-18.6-29.6c-11.1-14.9-24.4-28.6-39.4-40.8c-2.7-13.6-10.3-35-30.5-57.5c0.4,0.3,0.8,0.6,1.1,0.9
			c1.2,0.9,2.4,1.9,3.7,2.8c13.9,11,26.6,23.4,37.9,37.1c20.9,25.4,36.6,55,45.9,86.6C530.4,187.8,530.4,187.9,530.4,188.1z">
			<animateTransform attributeName="transform" type="rotate" from="0 295 276" to="360 295 276" begin="0.1s" dur="3s" repeatCount="indefinite" ></animateTransform>
		</path>
		<animateTransform attributeName="transform" type="translate" values="0 20; 0 220; 0 20" begin="0s" dur="1.5s" repeatCount="indefinite" ></animateTransform>
	</g>
</g>
<path class="st0" d="M543,746.8H49c-5.5,0-10-4.5-10-10l0,0c0-5.5,4.5-10,10-10h494c5.5,0,10,4.5,10,10l0,0
	C553,742.3,548.5,746.8,543,746.8z"/>
</svg>
