<?xml version="1.0"?>
<svg width="312.5" height="312.5" xmlns="http://www.w3.org/2000/svg" xmlns:xlink="http://www.w3.org/1999/xlink">
 <defs>
  <linearGradient id="linearGradient2807">
   <stop stop-color="#000022" stop-opacity="0" offset="0" id="stop2809"/>
   <stop stop-color="#000022" stop-opacity="0.39" offset="1" id="stop2811"/>
  </linearGradient>
  <mask id="mask2920">
   <path fill="#ffffff" fill-rule="evenodd" stroke-width="1.505051" stroke-linecap="round" stroke-linejoin="round" stroke-miterlimit="4" stroke-dashoffset="0" id="path2918" transform="matrix(0.996644,0,0,0.996644,2.02013,0.525168)" d="m304,156.5c0,82.290436 -66.709564,149 -149,149c-82.290428,0 -149,-66.709564 -149,-149c0,-82.290428 66.709572,-149 149,-149c82.290436,0 149,66.709572 149,149z"/>
  </mask>
  <radialGradient gradientTransform="matrix(2.573416,0,0,2.573416,-163.9033,-160.6078)" gradientUnits="userSpaceOnUse" xlink:href="#linearGradient2807" id="radialGradient2815" fy="100.92327" fx="105.2298" r="149" cy="100.92327" cx="105.2298"/>
 </defs>
 <g>
  <title>Layer 1</title>
  <path fill="#000000" fill-opacity="0.179487" fill-rule="evenodd" stroke-width="1.505051" stroke-linecap="round" stroke-linejoin="round" stroke-miterlimit="4" stroke-dashoffset="0" id="path3702" d="m304.173187,301.802216c0,5.079742 -60.378479,9.197693 -134.859085,9.197693c-74.480598,0 -134.859081,-4.11795 -134.859081,-9.197693c0,-5.079773 60.378483,-9.197723 134.859081,-9.197723c74.480606,0 134.859085,4.11795 134.859085,9.197723z"/>
  <path fill="#000000" fill-opacity="0.179487" fill-rule="evenodd" stroke-width="1.505051" stroke-linecap="round" stroke-linejoin="round" stroke-miterlimit="4" stroke-dashoffset="0" id="path4591" d="m263.66394,301.388855c0,3.025116 -39.465866,5.477448 -88.149445,5.477448c-48.683578,0 -88.149429,-2.452332 -88.149429,-5.477448c0,-3.025146 39.465851,-5.477478 88.149429,-5.477478c48.683578,0 88.149445,2.452332 88.149445,5.477478z"/>
  <path fill="#000000" fill-opacity="0.179487" fill-rule="evenodd" stroke-width="1.505051" stroke-linecap="round" stroke-linejoin="round" stroke-miterlimit="4" stroke-dashoffset="0" id="path4593" d="m281.851746,301.611786c0,4.133331 -49.08934,7.484039 -109.644119,7.484039c-60.554787,0 -109.644146,-3.350708 -109.644146,-7.484039c0,-4.133301 49.089359,-7.484009 109.644146,-7.484009c60.554779,0 109.644119,3.350708 109.644119,7.484009z"/>
  <path fill="#ffffff" fill-rule="evenodd" stroke-width="1.505051" stroke-linecap="round" stroke-linejoin="round" stroke-miterlimit="4" stroke-dashoffset="0" id="path2916" d="m304.999908,154.499954c0,82.014267 -66.485703,148.499954 -148.499954,148.499954c-82.014267,0 -148.499964,-66.485687 -148.499964,-148.499954c0,-82.014267 66.485697,-148.499954 148.499964,-148.499954c82.014252,0 148.499954,66.485687 148.499954,148.499954z"/>
  <path fill="url(#radialGradient2815)" fill-rule="evenodd" stroke-width="1.505051" stroke-linecap="round" stroke-linejoin="round" stroke-miterlimit="4" stroke-dashoffset="0" id="path1918" d="m304.999908,154.499954c0,82.014267 -66.485703,148.499954 -148.499954,148.499954c-82.014267,0 -148.499964,-66.485687 -148.499964,-148.499954c0,-82.014267 66.485697,-148.499954 148.499964,-148.499954c82.014252,0 148.499954,66.485687 148.499954,148.499954z"/>
  <g id="g2893" mask="url(#mask2920)">
   <g id="g2878">
    <path fill="none" fill-rule="evenodd" stroke="#000000" stroke-width="2.305674" stroke-miterlimit="4" stroke-dashoffset="0" id="path623" d="m298.359406,107.318275c-4.394623,-6.844498 -8.634918,-10.005219 -17.003143,-12.109764"/>
    <path fill="none" fill-opacity="0.75" fill-rule="evenodd" stroke="#000000" stroke-width="1.5" stroke-miterlimit="4" id="path1939" d="m50.000015,43.374996l13.5,13.75"/>
    <path fill="none" fill-opacity="0.75" fill-rule="evenodd" stroke="#000000" stroke-width="1.5" stroke-miterlimit="4" id="path1941" d="m48.000015,90c-30.656969,21.956131 -38.12507,66.505707 -37,66.25"/>
    <path fill="none" fill-opacity="0.75" fill-rule="evenodd" stroke="#000000" stroke-width="1.5" stroke-miterlimit="4" id="path1943" d="m87.000015,93.25c-3.161263,23.337067 5.25148,48.914261 22.75,76.25"/>
    <path fill="none" fill-opacity="0.75" fill-rule="evenodd" stroke="#000000" stroke-width="1.5" stroke-miterlimit="4" id="path1945" d="m29.125015,204.875c14.426731,14.423843 33.602089,12.209503 51.625,12.625"/>
    <path fill="none" fill-opacity="0.75" fill-rule="evenodd" stroke="#000000" stroke-width="1.5" stroke-miterlimit="4" id="path1947" d="m124.627586,262.858673c-3.122314,8.251587 -2.31517,19.684143 -0.530334,31.908203"/>
    <path fill="none" fill-opacity="0.75" fill-rule="evenodd" stroke="#000000" stroke-width="1.5" stroke-miterlimit="4" id="path1949" d="m103.060822,26.419847c11.476974,-11.4911 36.094971,-18.9077 68.235809,-22.27386"/>
    <path fill="none" fill-opacity="0.75" fill-rule="evenodd" stroke="#000000" stroke-width="1.5" stroke-miterlimit="4" id="path1951" d="m237.322723,48.074986c-7.987152,-14.875771 -22.057953,-26.564857 -36.947708,-37.824987"/>
    <path fill="none" fill-opacity="0.75" fill-rule="evenodd" stroke="#000000" stroke-width="1.5" stroke-miterlimit="4" id="path1953" d="m127.986343,52.052467c17.642807,1.987198 49.487076,4.601089 74.776535,18.915115"/>
    <path fill="none" fill-opacity="0.75" fill-rule="evenodd" stroke="#000000" stroke-width="1.5" stroke-miterlimit="4" id="path1964" d="m222.5,122c-15.122406,20.852997 -33.377853,40.313538 -54.5,58.5"/>
    <path fill="none" fill-opacity="0.75" fill-rule="evenodd" stroke="#000000" stroke-width="1.5" stroke-miterlimit="4" id="path1966" d="m177.5,236.25c19.357742,10.800507 40.560684,15.444855 66.25,11.25"/>
    <path fill="none" fill-opacity="0.75" fill-rule="evenodd" stroke="#000000" stroke-width="1.5" stroke-miterlimit="4" id="path1968" d="m268.5,134.5c9.881012,18.552139 11.331116,44.886658 12.75,71.25"/>
    <path fill="none" fill-opacity="0.75" fill-rule="evenodd" stroke="#000000" stroke-width="1.5" stroke-miterlimit="4" id="path1970" d="m277.75,94.75c8.13916,0.273643 16.026611,4.574417 23.5,15.5"/>
   </g>
   <g id="g2870">
    <path fill="#000000" fill-rule="evenodd" stroke-width="1px" id="path1972" d="m40.25,96c20.65398,3.618652 29.152893,2.159782 46.25,3.75c10.106781,-13.261726 27.26236,-30.047836 45.25,-47.25c-7.423737,-11.584721 -14.430519,-23.44108 -23.25,-30.75c-22.390266,7.59053 -38.335182,16.938889 -53.5,26.5c-9.51825,16.574043 -14.564709,32.509247 -14.75,47.75z"/>
    <path fill="#000000" fill-rule="evenodd" stroke-width="1px" id="path2860" d="m198,68.75c6.792862,18.669037 12.634506,35.435669 21.25,57.75c17.725983,4.680786 36.625763,10.300613 51.25,12.5c4.700775,-9.437485 7.810852,-27.623703 11.25,-44c-11.680328,-18.118156 -28.341003,-33.74617 -45.25,-49.25c-12.435638,4.485119 -25.403625,13.228981 -38.5,23z"/>
    <path fill="#000000" fill-rule="evenodd" stroke-width="1px" id="path2862" d="m106.75,165c22.794724,3.75 44.787323,7.5 66.25,11.25c6.635559,20.833328 7.494293,41.666672 9.75,62.5c-16.409546,13.635681 -39.038528,17.9422 -59,26.25c-23.226349,-15.013367 -32.683197,-31.747925 -46,-48c7.646851,-17.585815 16.082352,-35.073044 29,-52z"/>
    <path fill="#000000" fill-rule="evenodd" stroke-width="1px" id="path2864" d="m1.06066,146.804779c0.03223,1.047775 8.04678,2.226013 10.96015,1.060654c3.34635,21.417908 7.7287,42.145142 19.445439,57.982773c-2.293989,11.223267 -0.134449,20.219757 3.181982,28.637817c-20.318372,5.694672 -18.552162,8.773956 -26.516501,12.374374"/>
    <path fill="#000000" fill-rule="evenodd" stroke-width="1px" id="path2866" d="m75.660423,282.392517c19.310677,5.112518 33.378616,15.036743 48.26004,9.899475c4.376823,6.199921 16.486382,10.683563 48.08326,12.020813l-85.913475,7.60141"/>
    <path fill="#000000" fill-rule="evenodd" stroke-width="1px" id="path2868" d="m299.625,210.625c-5.63736,-4.154312 -11.469208,-8.114136 -18.75,-10.625c-14.5,19.317398 -29,41.307724 -43.5,48.25c-0.267258,11.909119 -2.123154,22.547302 -7.375,30.46875c10.951187,0.738525 22.38887,0.698639 35,-1.21875"/>
   </g>
  </g>
  <path fill="none" fill-rule="evenodd" stroke="#000000" stroke-width="1.5" stroke-linecap="round" stroke-linejoin="round" stroke-miterlimit="4" stroke-dashoffset="0" id="path2923" d="m304.999908,154.499954c0,82.014267 -66.485703,148.499954 -148.499954,148.499954c-82.014267,0 -148.499964,-66.485687 -148.499964,-148.499954c0,-82.014267 66.485697,-148.499954 148.499964,-148.499954c82.014252,0 148.499954,66.485687 148.499954,148.499954z"/>
  <g id="svg_5">
   <filter id="svg_4">
    <feGaussianBlur stdDeviation="4"/>
   </filter>
   <g>
    <g>
     <linearGradient gradientTransform="translate(0, -1) matrix(0.962724, 0, 0, 0.981306, -33.9014, 14.4008)" y2="160.2158" x2="338.6797" y1="160.2158" x1="20.8413" gradientUnits="userSpaceOnUse" id="svg_3">
      <stop stop-color="#5C6470" offset="0"/>
      <stop stop-color="#797F8D" offset="1"/>
     </linearGradient>
     <path d="m256.333374,22.589163c-1.786743,0.243689 -3.454758,1.201607 -4.528168,2.691486c0,0 -121.594299,165.701117 -129.756783,176.845465c-9.321259,-8.336929 -63.806442,-56.751953 -63.806442,-56.751953c-1.368752,-1.211533 -3.179047,-1.82869 -5.002071,-1.668213c-1.811268,0.136749 -3.495968,1.030258 -4.654755,2.440872l-44.606618,54.91539c-2.347975,2.892563 -1.948631,7.146255 0.895823,9.527634l108.114783,91.428284c3.918846,3.998077 9.744148,6.379517 15.925606,6.357727c6.10788,0.041595 11.933182,-2.339783 16.32399,-6.762909c0.664246,-0.765717 167.919952,-227.951973 167.919952,-227.951973c2.16156,-2.954964 1.104828,-7.475121 -1.769073,-9.760452l-49.979584,-39.896791c-1.41687,-1.148094 -3.263458,-1.659248 -5.07666,-1.414566zm-132.527641,196.275293c1.875999,-0.193222 3.58033,-1.171906 4.687096,-2.702408c0,0 122.175171,-166.489628 130.000122,-177.122837c22.592743,18.183628 34.14621,27.391323 39.866547,31.87978c-7.563965,10.262711 -163.283875,221.827042 -163.283875,221.827042c-1.158783,1.063843 -3.550903,2.041626 -6.130463,2.01886c-2.685471,0 -5.087433,-0.978699 -6.87809,-2.785583c-0.368912,-0.361603 -82.173244,-69.522919 -103.428659,-87.492538c6.161842,-7.612885 29.490492,-36.330597 35.947683,-44.242615c8.9533,7.976379 64.058605,56.980835 64.058605,56.980835c1.401123,1.234268 3.265381,1.851471 5.161034,1.639465z" filter="url(#svg_4)" fill="url(#svg_3)"/>
     <linearGradient gradientTransform="translate(0, -1) matrix(0.962724, 0, 0, 0.981306, -33.9014, 14.4008)" y2="269.0803" x2="178.3188" y1="19.8276" x1="178.3188" gradientUnits="userSpaceOnUse" id="svg_2">
      <stop stop-color="#6ABD45" offset="0"/>
      <stop stop-color="#06AD4D" offset="0.6685"/>
      <stop stop-color="#055448" offset="1"/>
     </linearGradient>
     <path d="m254.719345,20.093821l-3.286972,4.448826l-128.296806,174.796892l-0.946815,0.523026l-0.997879,-0.33577l-67.332825,-59.873444l-42.328308,52.067413l106.024849,89.68277c2.513794,2.537964 6.256042,4.072388 10.2995,4.072388l9.62542,-3.38092c0.697647,-0.775635 161.839554,-219.678406 161.839554,-219.678406l3.078003,-4.186329l-47.677719,-38.136446z" fill="url(#svg_2)"/>
     <linearGradient gradientTransform="translate(0, -1) matrix(0.962724, 0, 0, 0.981306, -33.9014, 14.4008)" y2="164.109" x2="192.1555" y1="-31.5498" x1="121.9199" gradientUnits="userSpaceOnUse" id="svg_1">
      <stop stop-color="#6ABD45" offset="0"/>
      <stop stop-color="#06AD4D" offset="0.6348"/>
      <stop stop-color="#0C864E" offset="0.7442"/>
      <stop stop-color="#096A4C" offset="0.8524"/>
      <stop stop-color="#045A49" offset="0.9414"/>
      <stop stop-color="#055448" offset="1"/>
     </linearGradient>
     <path d="m252.023041,13.074368c-1.763214,0.240714 -3.409637,1.184771 -4.469299,2.653841c0,0 -119.999886,163.524767 -128.05542,174.522493c-9.1996,-8.228012 -62.970478,-56.001114 -62.970478,-56.001114c-1.350105,-1.19664 -3.137829,-1.804855 -4.936352,-1.648346c-1.787708,0.136688 -3.450821,1.018341 -4.592918,2.408157l-44.021842,54.192276c-2.316578,2.853943 -1.923124,7.052124 0.884046,9.402878l106.696978,90.229614c3.866829,3.94455 9.616577,6.295288 15.71759,6.274506c6.028397,0.041595 11.777176,-2.309174 16.110062,-6.674744c0.655457,-0.755829 165.718201,-224.955399 165.718201,-224.955399c2.133087,-2.918343 1.090088,-7.379047 -1.745514,-9.634674l-49.323181,-39.375704c-1.39917,-1.133261 -3.222229,-1.637475 -5.011871,-1.393785zm-130.788979,193.694721c1.851479,-0.19017 3.534225,-1.156006 4.626266,-2.666687c0,0 120.572899,-164.300434 128.295769,-174.794926c22.297485,17.94389 33.697845,27.03273 39.343567,31.459747c-7.463898,10.127979 -161.142914,218.914692 -161.142914,218.914692c-1.144043,1.049042 -3.503799,2.013885 -6.049965,1.992096c-2.650192,0 -5.019768,-0.965881 -6.787849,-2.747955c-0.363998,-0.357605 -81.095909,-68.611526 -102.072657,-86.345444c6.081388,-7.513763 29.103907,-35.84816 35.476694,-43.655136c8.835579,7.8694 63.218727,56.225952 63.218727,56.225952c1.381485,1.218445 3.221222,1.827698 5.092361,1.617661z" fill="url(#svg_1)"/>
    </g>
    <rect x="-18" y="6.741403" height="315.343496" width="357.315117" fill="none"/>
   </g>
  </g>
 </g>
</svg>